<?xml version="1.0" encoding="UTF-8"?>
<svg version="1.1" xmlns="http://www.w3.org/2000/svg" width="766" height="496">
<path d="M0 0 C252.78 0 505.56 0 766 0 C766 163.68 766 327.36 766 496 C513.22 496 260.44 496 0 496 C0 332.32 0 168.64 0 0 Z " fill="#FEFEFE" transform="translate(0,0)"/>
<path d="M0 0 C0.33 0 0.66 0 1 0 C1 20.13 1 40.26 1 61 C-33.32 61 -67.64 61 -103 61 C-103 52.09 -103 43.18 -103 34 C-95.74330053 27.2270805 -91.55190714 25.18043745 -82 24 C-81.67 23.67 -81.34 23.34 -81 23 C-74.99379045 23.05338853 -68.95862687 24.25396476 -63.0625 25.3125 C-61.79535156 25.53550781 -60.52820313 25.75851563 -59.22265625 25.98828125 C-55.61334176 27.12138725 -55.06528638 28.0120561 -53 31 C-50.9511352 31.48057715 -50.9511352 31.48057715 -48.8125 31.25 C-46.9253125 31.12625 -46.9253125 31.12625 -45 31 C-44.93425781 30.38415039 -44.86851562 29.76830078 -44.80078125 29.13378906 C-44 27 -44 27 -41.91796875 25.81152344 C-41.01691406 25.49731445 -40.11585938 25.18310547 -39.1875 24.859375 C-38.19363281 24.51132813 -37.19976562 24.16328125 -36.17578125 23.8046875 C-35.12777344 23.45664063 -34.07976562 23.10859375 -33 22.75 C-31.98292969 22.38648438 -30.96585937 22.02296875 -29.91796875 21.6484375 C-23.68593983 19.52042762 -18.5786677 18.58883327 -12 19 C-11.5359375 17.3603125 -11.5359375 17.3603125 -11.0625 15.6875 C-8.80692114 9.5589272 -4.37945238 4.74586074 0 0 Z " fill="#177FC6" transform="translate(425,178)"/>
<path d="M0 0 C34.32 0 68.64 0 104 0 C104 15.58705357 104 15.58705357 99.78320312 20.15820312 C99.21537109 20.70412109 98.64753906 21.25003906 98.0625 21.8125 C97.49853516 22.40869141 96.93457031 23.00488281 96.35351562 23.61914062 C94.93391961 25.11014147 93.47042897 26.55910619 92 28 C91.505 28.495 91.505 28.495 91 29 C89.88625 29.061875 88.7725 29.12375 87.625 29.1875 C85.830625 29.5896875 85.830625 29.5896875 84 30 C83.64679688 30.92554688 83.29359375 31.85109375 82.9296875 32.8046875 C79.9770254 37.69391341 75.79137294 38.35433822 70.5 39.9375 C69.05560547 40.41026367 69.05560547 40.41026367 67.58203125 40.89257812 C60.44319784 43.14773261 60.44319784 43.14773261 57 42 C53.41656024 41.83322718 53.41656024 41.83322718 50 42 C49.67 42.33 49.34 42.66 49 43 C42.99134839 43.29639089 37.60338015 42.5572549 31.75 41.25 C30.56664062 41.01410156 30.56664062 41.01410156 29.359375 40.7734375 C24.6459708 39.73839942 22.29926783 38.67276985 19 35 C15.80045046 35.14349347 15.80045046 35.14349347 13 36 C12.7834375 37.546875 12.7834375 37.546875 12.5625 39.125 C11.28412114 43.77451126 8.02218716 45.49107519 4.09375 47.93359375 C2 49 2 49 0 49 C0 32.83 0 16.66 0 0 Z " fill="#1779C1" transform="translate(322,158)"/>
<path d="M0 0 C7.92309324 1.15914445 12.30841785 6.8666761 16.92749023 12.98925781 C24.75703872 23.78325229 29.04127986 33.22525653 27 47 C25.57648973 50.23936613 24.05425022 52.19583007 21 54 C16.76372676 54.79929684 13.85085693 53.9928732 9.9375 52.5 C1.51606169 49.4521038 -7.63247274 50.2677462 -16 53 C-21.37947711 53.67243464 -24.16248652 52.72495123 -28.421875 49.6796875 C-33.41143636 44.36901576 -33.64074373 38.60340417 -33.47265625 31.66796875 C-32.20449612 21.82662689 -26.18967351 13.57971926 -19 7 C-11.1242236 1 -11.1242236 1 -9 1 C-9 2.98 -9 4.96 -9 7 C-7.68 7 -6.36 7 -5 7 C-4.67 6.01 -4.34 5.02 -4 4 C-2.10786631 6.38573379 -0.97608217 8.07175348 0 11 C0.99 11 1.98 11 3 11 C2.32829194 7.1936543 1.27253436 3.64793184 0 0 Z " fill="#2A4D9B" transform="translate(296,225)"/>
<path d="M0 0 C2.54182983 2.22169041 4.97972979 4.5082617 7.38671875 6.875 C8.07507813 7.55046875 8.7634375 8.2259375 9.47265625 8.921875 C26.96605231 27.31414121 32.14972643 50.29067704 31.703125 75.00390625 C31.4201068 82.40382566 29.9457633 88.9026524 27.38671875 95.875 C27.02449219 96.91527344 26.66226563 97.95554687 26.2890625 99.02734375 C21.76138265 110.95279204 14.27193298 120.83659243 5.38671875 129.875 C4.7009375 130.57367188 4.01515625 131.27234375 3.30859375 131.9921875 C-13.48503276 147.97723199 -36.55344607 154.50327876 -59.2421875 154.14453125 C-71.94546751 153.68280057 -91.21293414 150.27534711 -100.61328125 140.875 C-100.65391957 139.20882885 -100.65600225 137.54111905 -100.61328125 135.875 C-97.07152797 137.24139618 -93.63998186 138.78779477 -90.19873047 140.38842773 C-71.2903494 149.02567398 -48.67339575 151.43814616 -28.61328125 144.875 C-5.20356858 135.33957825 11.02022128 119.94881694 21.38671875 96.875 C21.70382812 96.19179687 22.0209375 95.50859375 22.34765625 94.8046875 C29.55885366 77.74056689 27.48082475 55.35488349 21.70703125 38.09765625 C13.04511585 16.95540712 -2.3582678 1.68933942 -23.01171875 -7.6640625 C-42.77865433 -15.69291282 -65.90927136 -15.66198643 -85.80078125 -7.875 C-107.27615637 1.85782375 -121.30461175 16.13937222 -130.61328125 37.875 C-132.23707096 42.46071327 -133.48943956 47.14398902 -134.61328125 51.875 C-134.80019531 52.64070313 -134.98710937 53.40640625 -135.1796875 54.1953125 C-135.82375062 58.17573865 -135.98203486 62.16329219 -136.17578125 66.1875 C-136.21896484 67.02345703 -136.26214844 67.85941406 -136.30664062 68.72070312 C-136.41213432 70.77196935 -136.5131544 72.8234648 -136.61328125 74.875 C-137.93328125 74.875 -139.25328125 74.875 -140.61328125 74.875 C-141.60812038 48.64185751 -135.75465374 28.13472032 -118.15625 8.07421875 C-87.08370701 -24.8180925 -35.17577377 -28.60331978 0 0 Z " fill="#1D87CB" transform="translate(428.61328125,131.125)"/>
<path d="M0 0 C3.52019346 -0.1756269 7.03924935 -0.28128466 10.5625 -0.375 C11.55314453 -0.42527344 12.54378906 -0.47554688 13.56445312 -0.52734375 C18.26433571 -0.62102912 22.16696896 -0.51844116 26.16015625 2.1484375 C30.07478807 6.14026588 29.91738057 10.84032218 29.95703125 16.1875 C29.91642578 18.0746875 29.91642578 18.0746875 29.875 20 C29.90207031 21.258125 29.92914063 22.51625 29.95703125 23.8125 C29.88106361 34.05727882 29.88106361 34.05727882 26.16015625 37.8515625 C21.34380289 41.06819849 16.1453204 40.65831815 10.5625 40.375 C9.03592773 40.33439453 9.03592773 40.33439453 7.47851562 40.29296875 C4.98344487 40.22268507 2.49286153 40.12437201 0 40 C-0.04898437 38.80761719 -0.09796875 37.61523438 -0.1484375 36.38671875 C-0.22347604 34.82028932 -0.2990234 33.25388421 -0.375 31.6875 C-0.42140625 30.50897461 -0.42140625 30.50897461 -0.46875 29.30664062 C-0.52675781 28.1706543 -0.52675781 28.1706543 -0.5859375 27.01171875 C-0.6173584 26.31522217 -0.6487793 25.61872559 -0.68115234 24.90112305 C-0.92118253 22.67467261 -0.92118253 22.67467261 -3 20 C-2.34 19.34 -1.68 18.68 -1 18 C-0.63168919 16.06742145 -0.63168919 16.06742145 -0.5859375 13.8671875 C-0.54726563 13.06152344 -0.50859375 12.25585938 -0.46875 11.42578125 C-0.4378125 10.58402344 -0.406875 9.74226563 -0.375 8.875 C-0.33632813 8.02550781 -0.29765625 7.17601562 -0.2578125 6.30078125 C-0.16343506 4.20088316 -0.08062414 2.10047109 0 0 Z " fill="#191919" transform="translate(316,336)"/>
<path d="M0 0 C2.31 0 4.62 0 7 0 C8.84015498 3.2878978 10.67095047 6.58091326 12.5 9.875 C13.02464844 10.81214844 13.54929687 11.74929688 14.08984375 12.71484375 C14.58613281 13.61074219 15.08242187 14.50664062 15.59375 15.4296875 C16.05458984 16.25710449 16.51542969 17.08452148 16.99023438 17.93701172 C18 20 18 20 18 22 C18.66 22 19.32 22 20 22 C20.23460938 21.18273437 20.46921875 20.36546875 20.7109375 19.5234375 C22.26733657 15.26928005 24.36169958 11.53626604 26.625 7.625 C27.04523438 6.88894531 27.46546875 6.15289062 27.8984375 5.39453125 C28.92752764 3.5936235 29.96310756 1.79642682 31 0 C33.31 0 35.62 0 38 0 C38.04898438 1.26457031 38.09796875 2.52914063 38.1484375 3.83203125 C38.2234738 5.49220947 38.29902127 7.15236464 38.375 8.8125 C38.4059375 9.64587891 38.436875 10.47925781 38.46875 11.33789062 C38.52675781 12.54155273 38.52675781 12.54155273 38.5859375 13.76953125 C38.6173584 14.50792236 38.6487793 15.24631348 38.68115234 16.00708008 C38.90834614 18.31349588 38.90834614 18.31349588 41 21 C40.34 21.66 39.68 22.32 39 23 C38.69324768 25.89967757 38.48826629 28.71783178 38.375 31.625 C38.33632812 32.42679687 38.29765625 33.22859375 38.2578125 34.0546875 C38.16346069 36.03607556 38.08063785 38.01800645 38 40 C36.02 40 34.04 40 32 40 C31.67 31.09 31.34 22.18 31 13 C28.03 18.28 25.06 23.56 22 29 C20.02 29 18.04 29 16 29 C13.03 23.72 10.06 18.44 7 13 C6.67 21.91 6.34 30.82 6 40 C4.02 40 2.04 40 0 40 C0 34.06 0 28.12 0 22 C-0.99 21.67 -1.98 21.34 -3 21 C-2.01 19.515 -2.01 19.515 -1 18 C-0.63648496 15.97457852 -0.63648496 15.97457852 -0.5859375 13.76953125 C-0.54726562 12.96708984 -0.50859375 12.16464844 -0.46875 11.33789062 C-0.4378125 10.50451172 -0.406875 9.67113281 -0.375 8.8125 C-0.33632812 7.96751953 -0.29765625 7.12253906 -0.2578125 6.25195312 C-0.16363721 4.16832476 -0.08073325 2.08419247 0 0 Z " fill="#1B1B1B" transform="translate(67,336)"/>
<path d="M0 0 C3.2073796 -0.2046785 6.41307177 -0.32805321 9.625 -0.4375 C10.98044922 -0.52547852 10.98044922 -0.52547852 12.36328125 -0.61523438 C18.90991762 -0.78248421 18.90991762 -0.78248421 21.96313477 1.40917969 C24.95955691 4.68934212 26.82714713 7.55339387 26.6875 12.125 C26.42074153 17.02298183 24.63122753 18.74120606 21 22 C21.30482775 26.3133127 23.2286248 29.94965648 25.0625 33.8125 C25.61035156 34.97394531 26.15820312 36.13539063 26.72265625 37.33203125 C27.14417969 38.21246094 27.56570313 39.09289062 28 40 C25.69 40 23.38 40 21 40 C19.82866942 37.54379149 18.66278278 35.08525083 17.5 32.625 C17.16613281 31.92632812 16.83226562 31.22765625 16.48828125 30.5078125 C14 25.2265625 14 25.2265625 14 23 C11.36 23 8.72 23 6 23 C6 28.61 6 34.22 6 40 C4.02 40 2.04 40 0 40 C0 34.06 0 28.12 0 22 C-0.99 21.67 -1.98 21.34 -3 21 C-2.01 19.515 -2.01 19.515 -1 18 C-0.63648496 15.97457852 -0.63648496 15.97457852 -0.5859375 13.76953125 C-0.54726563 12.96708984 -0.50859375 12.16464844 -0.46875 11.33789062 C-0.4378125 10.50451172 -0.406875 9.67113281 -0.375 8.8125 C-0.33632813 7.96751953 -0.29765625 7.12253906 -0.2578125 6.25195312 C-0.16363721 4.16832476 -0.08073325 2.08419247 0 0 Z " fill="#1A1A1A" transform="translate(591,336)"/>
<path d="M0 0 C3.21111842 -0.18977529 6.41097307 -0.3279817 9.625 -0.4375 C10.98044922 -0.52547852 10.98044922 -0.52547852 12.36328125 -0.61523438 C18.92449181 -0.78285654 18.92449181 -0.78285654 21.96313477 1.42895508 C24.72752517 4.48100317 26.8367106 7.29821818 26.6875 11.5625 C26.47861198 14.98594247 25.76525488 16.68974055 23.4375 19.1875 C20.7276797 21.72706014 20.7276797 21.72706014 20.875 24.75 C22.22407713 28.64733392 23.9981108 32.19476806 25.94140625 35.828125 C27 38 27 38 27 40 C25.02 40 23.04 40 21 40 C20.50371094 38.85660156 20.00742188 37.71320313 19.49609375 36.53515625 C18.81130234 35.04362428 18.12502626 33.55277331 17.4375 32.0625 C16.95313477 30.93038086 16.95313477 30.93038086 16.45898438 29.77539062 C16.12060547 29.05673828 15.78222656 28.33808594 15.43359375 27.59765625 C15.13509521 26.93258057 14.83659668 26.26750488 14.52905273 25.58227539 C12.54408294 23.20439863 12.54408294 23.20439863 6 23 C6 28.61 6 34.22 6 40 C4.02 40 2.04 40 0 40 C-0.07347656 38.22882813 -0.07347656 38.22882813 -0.1484375 36.421875 C-0.22348879 34.86456063 -0.29903561 33.30727009 -0.375 31.75 C-0.4059375 30.97269531 -0.436875 30.19539063 -0.46875 29.39453125 C-0.72658242 23.92620093 -0.72658242 23.92620093 -3 19 C-2.01 18.67 -1.02 18.34 0 18 C0 12.06 0 6.12 0 0 Z " fill="#171717" transform="translate(230,336)"/>
<path d="M0 0 C2.31 0 4.62 0 7 0 C8.84041821 4.72945124 10.67325534 9.46174535 12.49926758 14.19677734 C13.12091233 15.80564508 13.74458574 17.41373056 14.37036133 19.02099609 C15.27184841 21.33746647 16.16589244 23.65669445 17.05859375 25.9765625 C17.3377916 26.68930328 17.61698944 27.40204407 17.90464783 28.13638306 C19.41426055 32.08311773 20.46581858 35.77852302 21 40 C19.02 40 17.04 40 15 40 C13.515 35.05 13.515 35.05 12 30 C6.39 30 0.78 30 -5 30 C-5.99 33.3 -6.98 36.6 -8 40 C-9.98 40 -11.96 40 -14 40 C-13.43438582 34.76806885 -11.63901263 30.31105729 -9.64453125 25.48828125 C-9.32548828 24.25658203 -9.32548828 24.25658203 -9 23 C-9.66 22.01 -10.32 21.02 -11 20 C-10.236875 19.87625 -9.47375 19.7525 -8.6875 19.625 C-4.90522604 17.33804365 -4.74691272 14.83714831 -3.69140625 10.6875 C-2.74269232 6.99984359 -1.37907134 3.54618345 0 0 Z " fill="#1A1A1A" transform="translate(557,336)"/>
<path d="M0 0 C2.31 0 4.62 0 7 0 C8.99794087 5.3736411 10.99166265 10.74882095 12.98144531 16.12548828 C13.6593155 17.95534783 14.33834822 19.78477715 15.01855469 21.61376953 C15.99457951 24.23879257 16.96644911 26.86532112 17.9375 29.4921875 C18.24373291 30.31306854 18.54996582 31.13394958 18.86547852 31.97970581 C21 37.77225659 21 37.77225659 21 40 C19.02 40 17.04 40 15 40 C12 33.375 12 33.375 12 30 C3.585 30.495 3.585 30.495 -5 31 C-6.32 33.97 -7.64 36.94 -9 40 C-10.98 40 -12.96 40 -15 40 C-14.62746094 38.97519531 -14.25492187 37.95039063 -13.87109375 36.89453125 C-13.39258981 35.53407887 -12.91476062 34.17338904 -12.4375 32.8125 C-12.19064453 32.13896484 -11.94378906 31.46542969 -11.68945312 30.77148438 C-10.31375533 26.7993992 -9.68827434 24.04514201 -11 20 C-9.824375 19.7834375 -9.824375 19.7834375 -8.625 19.5625 C-5.89191762 18.31619196 -5.89191762 18.31619196 -5.36328125 16.1796875 C-5.0696566 14.63344391 -4.79471708 13.08357499 -4.53515625 11.53125 C-3.66571945 7.4188774 -1.83213916 3.76211099 0 0 Z " fill="#1A1A1A" transform="translate(282,336)"/>
<path d="M0 0 C6 0 6 0 7.4753418 1.3984375 C7.98834839 2.37683594 7.98834839 2.37683594 8.51171875 3.375 C8.91438965 4.10589844 9.31706055 4.83679688 9.73193359 5.58984375 C10.15039551 6.38519531 10.56885742 7.18054688 11 8 C11.95939665 9.64901452 12.92439023 11.29478358 13.89453125 12.9375 C14.86887591 14.62402569 15.84122649 16.31170376 16.8125 18 C18.524375 20.97 20.23625 23.94 22 27 C22.33 18.09 22.66 9.18 23 0 C24.65 0 26.3 0 28 0 C28 5.94 28 11.88 28 18 C28.99 18.33 29.98 18.66 31 19 C30.52433594 19.71929687 30.52433594 19.71929687 30.0390625 20.453125 C28.52584233 24.16222106 28.53308589 27.77809202 28.375 31.75 C28.33632813 32.54277344 28.29765625 33.33554687 28.2578125 34.15234375 C28.163892 36.10119416 28.08087178 38.05056451 28 40 C26.02 40 24.04 40 22 40 C21.58113525 39.2479126 21.16227051 38.4958252 20.73071289 37.72094727 C19.17964254 34.9378088 17.62707856 32.15551068 16.07348633 29.3737793 C15.40068258 28.16838663 14.72847976 26.96265835 14.05688477 25.7565918 C13.09288084 24.02565339 12.12655352 22.29600957 11.16015625 20.56640625 C10.57886963 19.52427979 9.99758301 18.48215332 9.39868164 17.40844727 C8.20986135 15.12440597 8.20986135 15.12440597 7 14 C6.67 22.58 6.34 31.16 6 40 C4.02 40 2.04 40 0 40 C-0.07347656 38.22882813 -0.07347656 38.22882813 -0.1484375 36.421875 C-0.22348879 34.86456063 -0.29903561 33.30727009 -0.375 31.75 C-0.4059375 30.97269531 -0.436875 30.19539063 -0.46875 29.39453125 C-0.72658242 23.92620093 -0.72658242 23.92620093 -3 19 C-2.34 18.67 -1.68 18.34 -1 18 C-0.505 9.09 -0.505 9.09 0 0 Z " fill="#161616" transform="translate(384,336)"/>
<path d="M0 0 C2.92253711 2.13363139 4.26885142 3.7518392 4.87890625 7.359375 C4.90734292 9.60942676 4.78436274 11.73055634 4.47265625 13.95703125 C2.49265625 13.95703125 0.51265625 13.95703125 -1.52734375 13.95703125 C-1.99140625 12.25546875 -1.99140625 12.25546875 -2.46484375 10.51953125 C-3.15658906 7.16928026 -3.15658906 7.16928026 -4.52734375 5.95703125 C-6.33661656 5.83215367 -8.15130482 5.78132279 -9.96484375 5.76953125 C-10.95355469 5.75535156 -11.94226563 5.74117188 -12.9609375 5.7265625 C-15.6931879 5.69552372 -15.6931879 5.69552372 -17.52734375 7.95703125 C-17.89830083 10.3794972 -17.89830083 10.3794972 -17.94140625 13.18359375 C-17.99941406 14.73046875 -17.99941406 14.73046875 -18.05859375 16.30859375 C-18.08953125 17.38882812 -18.12046875 18.4690625 -18.15234375 19.58203125 C-18.21035156 21.21398437 -18.21035156 21.21398437 -18.26953125 22.87890625 C-18.36400622 25.5714429 -18.44956806 28.26396882 -18.52734375 30.95703125 C-15.44436324 31.98469142 -13.19603949 32.12301863 -9.96484375 32.14453125 C-8.50884766 32.16580078 -8.50884766 32.16580078 -7.0234375 32.1875 C-4.35335459 32.20910871 -4.35335459 32.20910871 -2.52734375 29.95703125 C-1.87966582 27.38641814 -1.87966582 27.38641814 -1.52734375 24.95703125 C-4.16734375 24.95703125 -6.80734375 24.95703125 -9.52734375 24.95703125 C-9.52734375 22.97703125 -9.52734375 20.99703125 -9.52734375 18.95703125 C-4.90734375 18.95703125 -0.28734375 18.95703125 4.47265625 18.95703125 C5.27645168 31.12879066 5.27645168 31.12879066 3.4765625 35.22265625 C0.11828807 38.81644603 -3.63581059 39.3260621 -8.44116211 39.65551758 C-18.57528568 39.89847861 -18.57528568 39.89847861 -22.46484375 36.64453125 C-25.1848125 33.02654107 -25.25026283 28.94334625 -25.32421875 24.54296875 C-25.53551641 21.85298703 -26.16572115 20.25882183 -27.52734375 17.95703125 C-26.53734375 17.62703125 -25.54734375 17.29703125 -24.52734375 16.95703125 C-24.60855469 16.16039062 -24.68976563 15.36375 -24.7734375 14.54296875 C-25.25513561 6.46223715 -25.25513561 6.46223715 -23.49609375 2.82421875 C-17.79323462 -3.1986988 -7.24540281 -2.98998848 0 0 Z " fill="#1A1A1A" transform="translate(455.52734375,337.04296875)"/>
<path d="M0 0 C1.98 0 3.96 0 6 0 C6.33 5.61 6.66 11.22 7 17 C8.41152344 15.15921875 8.41152344 15.15921875 9.8515625 13.28125 C11.10841151 11.68674007 12.36627735 10.09303128 13.625 8.5 C14.24246094 7.68917969 14.85992188 6.87835938 15.49609375 6.04296875 C20.22539106 0.1189016 20.22539106 0.1189016 24.4609375 -0.53125 C25.71777344 -0.26828125 25.71777344 -0.26828125 27 0 C25.02207432 4.66470335 21.59258806 8.37545647 18.36914062 12.22265625 C15.74921814 15.20237125 15.74921814 15.20237125 15.18994141 18.92504883 C16.14272069 21.36557658 17.37962407 23.18858682 18.94140625 25.29296875 C19.52470703 26.08767578 20.10800781 26.88238281 20.70898438 27.70117188 C21.32064453 28.52166016 21.93230469 29.34214844 22.5625 30.1875 C23.77409581 31.82537455 24.9838391 33.4646217 26.19140625 35.10546875 C26.72967041 35.82887451 27.26793457 36.55228027 27.82250977 37.29760742 C29 39 29 39 29 40 C25.87109375 40.4609375 25.87109375 40.4609375 22 40 C19.52316078 37.88472669 17.8475495 35.33096716 16.0625 32.625 C15.56943359 31.92632812 15.07636719 31.22765625 14.56835938 30.5078125 C11 25.36066444 11 25.36066444 11 23 C8.89970173 24.019062 8.89970173 24.019062 7 26 C6.29727224 29.41627532 6.29727224 29.41627532 6.25 33.1875 C6.19328125 34.45980469 6.1365625 35.73210937 6.078125 37.04296875 C6.05234375 38.01878906 6.0265625 38.99460937 6 40 C4.02 40 2.04 40 0 40 C-0.07347656 38.22882813 -0.07347656 38.22882813 -0.1484375 36.421875 C-0.22348879 34.86456063 -0.29903561 33.30727009 -0.375 31.75 C-0.4059375 30.97269531 -0.436875 30.19539063 -0.46875 29.39453125 C-0.72658242 23.92620093 -0.72658242 23.92620093 -3 19 C-2.01 18.67 -1.02 18.34 0 18 C0 12.06 0 6.12 0 0 Z " fill="#1B1B1B" transform="translate(504,336)"/>
<path d="M0 0 C13 0 13 0 17 3 C17.51757812 5.3125 17.51757812 5.3125 17.53125 8 C17.53640625 8.969375 17.5415625 9.93875 17.546875 10.9375 C17.53140625 11.948125 17.5159375 12.95875 17.5 14 C17.51546875 15.010625 17.5309375 16.02125 17.546875 17.0625 C17.54171875 18.031875 17.5365625 19.00125 17.53125 20 C17.52673828 20.886875 17.52222656 21.77375 17.51757812 22.6875 C17 25 17 25 13 28 C8.71 28 4.42 28 0 28 C0 18.76 0 9.52 0 0 Z " fill="#FBFBFB" transform="translate(322,342)"/>
<path d="M0 0 C9.57 0 19.14 0 29 0 C29 1.98 29 3.96 29 6 C25.04 6 21.08 6 17 6 C17 9.96 17 13.92 17 18 C17.99 18.33 18.98 18.66 20 19 C19.68289063 19.47953125 19.36578125 19.9590625 19.0390625 20.453125 C17.52584233 24.16222106 17.53308589 27.77809202 17.375 31.75 C17.33632813 32.54277344 17.29765625 33.33554687 17.2578125 34.15234375 C17.163892 36.10119416 17.08087178 38.05056451 17 40 C15.02 40 13.04 40 11 40 C11 34.06 11 28.12 11 22 C10.01 21.67 9.02 21.34 8 21 C8.66 20.01 9.32 19.02 10 18 C10.45915507 15.03157342 10.45915507 15.03157342 10.625 11.8125 C10.69976563 10.72582031 10.77453125 9.63914062 10.8515625 8.51953125 C10.90054688 7.68808594 10.94953125 6.85664063 11 6 C7.37 6 3.74 6 0 6 C0 4.02 0 2.04 0 0 Z " fill="#191919" transform="translate(629,336)"/>
<path d="M0 0 C3.16015625 -0.4296875 3.16015625 -0.4296875 7 0 C9.3165686 1.95747434 10.82051227 4.32868034 12.4375 6.875 C12.88287109 7.52597656 13.32824219 8.17695313 13.78710938 8.84765625 C17 13.63491263 17 13.63491263 17 16 C21.27920266 12.09083925 23.82015671 7.46051338 26.70703125 2.484375 C29 0 29 0 32.76171875 -0.359375 C34.36466797 -0.18148438 34.36466797 -0.18148438 36 0 C34.97916667 1.60416667 33.95833333 3.20833333 32.9375 4.8125 C32.30457031 5.82828125 31.67164063 6.8440625 31.01953125 7.890625 C29 11 29 11 27.01171875 13.546875 C20.7841695 21.850274 20.9229405 29.99327305 21 40 C19.02 40 17.04 40 15 40 C15.09023437 38.94425781 15.18046875 37.88851562 15.2734375 36.80078125 C15.81845909 22.56026192 9.71186609 13.81503025 1.26928711 2.75561523 C0 1 0 1 0 0 Z " fill="#181818" transform="translate(115,336)"/>
<path d="M0 0 C9.57 0 19.14 0 29 0 C29 1.98 29 3.96 29 6 C25.04 6 21.08 6 17 6 C17 9.96 17 13.92 17 18 C17.99 18.33 18.98 18.66 20 19 C19.68289062 19.47953125 19.36578125 19.9590625 19.0390625 20.453125 C17.52584233 24.16222106 17.53308589 27.77809202 17.375 31.75 C17.33632812 32.54277344 17.29765625 33.33554687 17.2578125 34.15234375 C17.163892 36.10119416 17.08087178 38.05056451 17 40 C15.35 40 13.7 40 12 40 C11.95101562 38.81921875 11.90203125 37.6384375 11.8515625 36.421875 C11.77651121 34.86456063 11.70096439 33.30727009 11.625 31.75 C11.5940625 30.97269531 11.563125 30.19539063 11.53125 29.39453125 C11.27341758 23.92620093 11.27341758 23.92620093 9 19 C9.66 18.34 10.32 17.68 11 17 C11.46290221 14.33757179 11.46290221 14.33757179 11.625 11.375 C11.74875 9.60125 11.8725 7.8275 12 6 C8.04 6 4.08 6 0 6 C0 4.02 0 2.04 0 0 Z " fill="#111111" transform="translate(188,336)"/>
<path d="M0 0 C1.32 0 2.64 0 4 0 C4 1.32 4 2.64 4 4 C4.61875 4.12375 5.2375 4.2475 5.875 4.375 C8 5 8 5 10 7 C10 7.99 10 8.98 10 10 C9.01 10 8.02 10 7 10 C6.34 9.01 5.68 8.02 5 7 C4.67 9.31 4.34 11.62 4 14 C5.98 14.66 7.96 15.32 10 16 C10.8125 19.25 10.8125 19.25 11 23 C8.6875 25.4375 8.6875 25.4375 6 27 C5.34 27 4.68 27 4 27 C4 28.32 4 29.64 4 31 C2.68 31 1.36 31 0 31 C0 29.68 0 28.36 0 27 C-1.175625 26.566875 -1.175625 26.566875 -2.375 26.125 C-5 25 -5 25 -7 23 C-7 21.68 -7 20.36 -7 19 C-6.01 19 -5.02 19 -4 19 C-3.71125 19.639375 -3.4225 20.27875 -3.125 20.9375 C-2.17176549 23.15206079 -2.17176549 23.15206079 0 24 C-0.18373276 19.93393315 -0.18373276 19.93393315 -1 16 C-2.65948148 14.98812105 -4.32580562 13.9873454 -6 13 C-6.5 9.4375 -6.5 9.4375 -6 6 C-3 4 -3 4 0 4 C0 2.68 0 1.36 0 0 Z " fill="#EAEEF5" transform="translate(291,239)"/>
<path d="M0 0 C-2.0123882 5.68848347 -4.92791304 9.6612089 -10 13 C-14.23795471 14.0889579 -17.76186584 14.08565902 -22 13 C-25.68746074 10.66544721 -28.39626356 7.99616903 -29.67578125 3.765625 C-29.78277344 3.18296875 -29.88976562 2.6003125 -30 2 C-28.44152344 2.03480469 -28.44152344 2.03480469 -26.8515625 2.0703125 C-19.71068278 2.18001396 -12.99307608 2.19406111 -6.015625 0.4375 C-4 0 -4 0 0 0 Z " fill="#2C4E9B" transform="translate(307,208)"/>
<path d="M0 0 C1.65 0 3.3 0 5 0 C5 5.94 5 11.88 5 18 C5.99 18.33 6.98 18.66 8 19 C7.68289063 19.47953125 7.36578125 19.9590625 7.0390625 20.453125 C5.52584233 24.16222106 5.53308589 27.77809202 5.375 31.75 C5.31699219 32.93916016 5.31699219 32.93916016 5.2578125 34.15234375 C5.163892 36.10119416 5.08087178 38.05056451 5 40 C3.35 40 1.7 40 0 40 C-0.07347656 38.22882813 -0.07347656 38.22882813 -0.1484375 36.421875 C-0.22348879 34.86456063 -0.29903561 33.30727009 -0.375 31.75 C-0.4059375 30.97269531 -0.436875 30.19539063 -0.46875 29.39453125 C-0.72658242 23.92620093 -0.72658242 23.92620093 -3 19 C-2.34 18.34 -1.68 17.68 -1 17 C-0.69324768 14.10032243 -0.48826629 11.28216822 -0.375 8.375 C-0.33632813 7.57320313 -0.29765625 6.77140625 -0.2578125 5.9453125 C-0.16346069 3.96392444 -0.08063785 1.98199355 0 0 Z " fill="#121212" transform="translate(360,336)"/>
<path d="M0 0 C10.46238351 -0.36926059 10.46238351 -0.36926059 12.87109375 1.28515625 C14 3 14 3 13.75 6.625 C13 10 13 10 12 11 C9.98035801 11.07244053 7.95832876 11.08377188 5.9375 11.0625 C4.83277344 11.05347656 3.72804688 11.04445313 2.58984375 11.03515625 C1.30787109 11.01775391 1.30787109 11.01775391 0 11 C0 7.37 0 3.74 0 0 Z " fill="#F8F8F8" transform="translate(597,342)"/>
<path d="M0 0 C10.49915863 -0.37055854 10.49915863 -0.37055854 12.83203125 1.35546875 C14.49776873 3.7008717 14.42147552 5.19016323 14 8 C12.83203125 9.64453125 12.83203125 9.64453125 11 11 C7.29631297 11.40199208 3.73655831 11.13187853 0 11 C0 7.37 0 3.74 0 0 Z " fill="#FBFBFB" transform="translate(236,342)"/>
<path d="M0 0 C2.36775721 2.36775721 2.99896496 4.29711338 4.125 7.4375 C4.47820313 8.40558594 4.83140625 9.37367188 5.1953125 10.37109375 C6 13 6 13 6 16 C2.37 16 -1.26 16 -5 16 C-4.22181136 12.10905678 -3.31126232 8.86563783 -1.9375 5.1875 C-1.57527344 4.21167969 -1.21304688 3.23585938 -0.83984375 2.23046875 C-0.42412109 1.12638672 -0.42412109 1.12638672 0 0 Z " fill="#F0F0F0" transform="translate(560,344)"/>
<path d="M0 0 C1.91385532 2.87078299 2.96432952 5.33411656 4.125 8.5625 C4.47820312 9.53316406 4.83140625 10.50382812 5.1953125 11.50390625 C6 14 6 14 6 16 C2.37 16 -1.26 16 -5 16 C-4.39363767 10.23955788 -2.24341721 5.27985631 0 0 Z " fill="#F0F0F0" transform="translate(285,344)"/>
<path d="M0 0 C1.98 0.99 1.98 0.99 4 2 C3.6875 3.9375 3.6875 3.9375 3 6 C2.01 6.33 1.02 6.66 0 7 C0 4.69 0 2.38 0 0 Z " fill="#395DA4" transform="translate(295,256)"/>
</svg>
