<?xml version="1.0" encoding="UTF-8"?>
<svg version="1.1" xmlns="http://www.w3.org/2000/svg" width="976" height="615">
<path d="M0 0 C322.08 0 644.16 0 976 0 C976 202.95 976 405.9 976 615 C653.92 615 331.84 615 0 615 C0 412.05 0 209.1 0 0 Z " fill="#1E1E1E" transform="translate(0,0)"/>
<path d="M0 0 C2.78382043 1.27170385 4.82934578 2.58060283 6.9866333 4.74612427 C7.54746613 5.30420776 8.10829895 5.86229126 8.68612671 6.43728638 C9.28889435 7.04724457 9.89166199 7.65720276 10.51269531 8.28564453 C11.15701508 8.92967224 11.80133484 9.57369995 12.46517944 10.23724365 C14.59093698 12.36439307 16.70952508 14.49853612 18.828125 16.6328125 C20.30170781 18.11012593 21.77573318 19.58699804 23.25018311 21.06344604 C27.12780821 24.94870369 30.99938941 28.83993029 34.86975098 32.73242188 C38.82099939 36.70413678 42.77792261 40.670189 46.734375 44.63671875 C54.49515421 52.4189412 62.24956148 60.20747999 70 68 C68.72829615 70.78382043 67.41939717 72.82934578 65.25387573 74.9866333 C64.69579224 75.54746613 64.13770874 76.10829895 63.56271362 76.68612671 C62.95275543 77.28889435 62.34279724 77.89166199 61.71435547 78.51269531 C61.07032776 79.15701508 60.42630005 79.80133484 59.76275635 80.46517944 C57.63560693 82.59093698 55.50146388 84.70952508 53.3671875 86.828125 C51.88987407 88.30170781 50.41300196 89.77573318 48.93655396 91.25018311 C45.05129631 95.12780821 41.16006971 98.99938941 37.26757812 102.86975098 C33.29586322 106.82099939 29.329811 110.77792261 25.36328125 114.734375 C17.5810588 122.49515421 9.79252001 130.24956148 2 138 C-0.78382043 136.72829615 -2.82934578 135.41939717 -4.9866333 133.25387573 C-5.54746613 132.69579224 -6.10829895 132.13770874 -6.68612671 131.56271362 C-7.28889435 130.95275543 -7.89166199 130.34279724 -8.51269531 129.71435547 C-9.15701508 129.07032776 -9.80133484 128.42630005 -10.46517944 127.76275635 C-12.59093698 125.63560693 -14.70952508 123.50146388 -16.828125 121.3671875 C-18.30170781 119.88987407 -19.77573318 118.41300196 -21.25018311 116.93655396 C-25.12780821 113.05129631 -28.99938941 109.16006971 -32.86975098 105.26757812 C-36.82099939 101.29586322 -40.77792261 97.329811 -44.734375 93.36328125 C-52.49515421 85.5810588 -60.24956148 77.79252001 -68 70 C-66.72829615 67.21617957 -65.41939717 65.17065422 -63.25387573 63.0133667 C-62.69579224 62.45253387 -62.13770874 61.89170105 -61.56271362 61.31387329 C-60.95275543 60.71110565 -60.34279724 60.10833801 -59.71435547 59.48730469 C-59.07032776 58.84298492 -58.42630005 58.19866516 -57.76275635 57.53482056 C-55.63560693 55.40906302 -53.50146388 53.29047492 -51.3671875 51.171875 C-49.88987407 49.69829219 -48.41300196 48.22426682 -46.93655396 46.74981689 C-43.05129631 42.87219179 -39.16006971 39.00061059 -35.26757812 35.13024902 C-31.29586322 31.17900061 -27.329811 27.22207739 -23.36328125 23.265625 C-15.5810588 15.50484579 -7.79252001 7.75043852 0 0 Z " fill="#FCFCFC" transform="translate(470,194)"/>
<path d="M0 0 C3.85308766 1.57523746 6.44743914 4.17747444 9.31933594 7.09228516 C9.83685928 7.60951645 10.35438263 8.12674774 10.8875885 8.65965271 C12.59130289 10.36475671 14.28782978 12.07682768 15.984375 13.7890625 C17.16649407 14.974913 18.34905645 16.16032174 19.53204346 17.3453064 C22.64028728 20.46117638 25.74247737 23.58300634 28.84344482 26.70611572 C32.01048502 29.89363619 35.18321387 33.0754832 38.35546875 36.2578125 C44.57589403 42.49966976 50.78993537 48.74783485 57 55 C51.63404477 61.5090428 45.72246515 67.44134281 39.765625 73.40234375 C38.68032749 74.49085932 37.59510329 75.579448 36.50994873 76.66810608 C34.24912104 78.93488666 31.98627168 81.19962657 29.72216797 83.46313477 C26.81617721 86.36902313 23.91717205 89.28177705 21.01980972 92.19626522 C18.78765545 94.43950143 16.55100822 96.67821505 14.31304169 98.91565132 C13.24128425 99.98859091 12.17115282 101.06315721 11.10266876 102.13935661 C9.61641677 103.63534854 8.12403331 105.12493984 6.62988281 106.61303711 C5.78194153 107.46240341 4.93400024 108.31176971 4.06036377 109.18687439 C2 111 2 111 0 111 C-1.34107971 109.63891602 -1.34107971 109.63891602 -2.93969727 107.69140625 C-7.65606159 102.14976744 -12.81005759 97.06491486 -17.96484375 91.9375 C-19.00881066 90.8954026 -20.05255372 89.85308091 -21.09608459 88.81054688 C-23.81785922 86.09255554 -26.54262523 83.3775831 -29.26806641 80.66326904 C-32.05881073 77.88282982 -34.84665871 75.09948971 -37.63476562 72.31640625 C-43.08704358 66.87479158 -48.54249109 61.43636897 -54 56 C-52.41219641 52.13533667 -49.94066771 49.69940845 -46.99951172 46.77246094 C-46.492034 46.26469116 -45.98455627 45.75692139 -45.46170044 45.23376465 C-43.78906131 43.56251491 -42.10945783 41.89845444 -40.4296875 40.234375 C-39.26625722 39.07467623 -38.10326874 37.91453408 -36.94070435 36.75396729 C-33.884018 33.70490648 -30.82137256 30.66190037 -27.75744629 27.62011719 C-24.63024835 24.51340087 -21.50872493 21.40099455 -18.38671875 18.2890625 C-12.2633512 12.18712583 -6.1336764 6.09157402 0 0 Z " fill="#232323" transform="translate(400,138)"/>
<path d="M0 0 C2.78382043 1.27170385 4.82934578 2.58060283 6.9866333 4.74612427 C7.54746613 5.30420776 8.10829895 5.86229126 8.68612671 6.43728638 C9.28889435 7.04724457 9.89166199 7.65720276 10.51269531 8.28564453 C11.15701508 8.92967224 11.80133484 9.57369995 12.46517944 10.23724365 C14.59093698 12.36439307 16.70952508 14.49853612 18.828125 16.6328125 C20.30170781 18.11012593 21.77573318 19.58699804 23.25018311 21.06344604 C27.12780821 24.94870369 30.99938941 28.83993029 34.86975098 32.73242188 C38.82099939 36.70413678 42.77792261 40.670189 46.734375 44.63671875 C54.49515421 52.4189412 62.24956148 60.20747999 70 68 C68.72829615 70.78382043 67.41939717 72.82934578 65.25387573 74.9866333 C64.69579224 75.54746613 64.13770874 76.10829895 63.56271362 76.68612671 C62.95275543 77.28889435 62.34279724 77.89166199 61.71435547 78.51269531 C61.07032776 79.15701508 60.42630005 79.80133484 59.76275635 80.46517944 C57.63560693 82.59093698 55.50146388 84.70952508 53.3671875 86.828125 C51.88987407 88.30170781 50.41300196 89.77573318 48.93655396 91.25018311 C45.05129631 95.12780821 41.16006971 98.99938941 37.26757812 102.86975098 C33.29586322 106.82099939 29.329811 110.77792261 25.36328125 114.734375 C17.5810588 122.49515421 9.79252001 130.24956148 2 138 C-0.78382043 136.72829615 -2.82934578 135.41939717 -4.9866333 133.25387573 C-5.54746613 132.69579224 -6.10829895 132.13770874 -6.68612671 131.56271362 C-7.28889435 130.95275543 -7.89166199 130.34279724 -8.51269531 129.71435547 C-9.15701508 129.07032776 -9.80133484 128.42630005 -10.46517944 127.76275635 C-12.59093698 125.63560693 -14.70952508 123.50146388 -16.828125 121.3671875 C-18.30170781 119.88987407 -19.77573318 118.41300196 -21.25018311 116.93655396 C-25.12780821 113.05129631 -28.99938941 109.16006971 -32.86975098 105.26757812 C-36.82099939 101.29586322 -40.77792261 97.329811 -44.734375 93.36328125 C-52.49515421 85.5810588 -60.24956148 77.79252001 -68 70 C-66.72829615 67.21617957 -65.41939717 65.17065422 -63.25387573 63.0133667 C-62.69579224 62.45253387 -62.13770874 61.89170105 -61.56271362 61.31387329 C-60.95275543 60.71110565 -60.34279724 60.10833801 -59.71435547 59.48730469 C-59.07032776 58.84298492 -58.42630005 58.19866516 -57.76275635 57.53482056 C-55.63560693 55.40906302 -53.50146388 53.29047492 -51.3671875 51.171875 C-49.88987407 49.69829219 -48.41300196 48.22426682 -46.93655396 46.74981689 C-43.05129631 42.87219179 -39.16006971 39.00061059 -35.26757812 35.13024902 C-31.29586322 31.17900061 -27.329811 27.22207739 -23.36328125 23.265625 C-15.5810588 15.50484579 -7.79252001 7.75043852 0 0 Z M-3.67575073 17.4269104 C-4.42237473 18.18432022 -4.42237473 18.18432022 -5.18408203 18.95703125 C-5.71106689 19.48372406 -6.23805176 20.01041687 -6.78100586 20.55307007 C-8.52805461 22.30151623 -10.26790621 24.05694845 -12.0078125 25.8125 C-13.21521169 27.02362786 -14.42305214 28.23431597 -15.63131714 29.44458008 C-18.81520244 32.63611335 -21.99303714 35.83360655 -25.16967773 39.03234863 C-28.41028896 42.29339323 -31.65654666 45.54880594 -34.90234375 48.8046875 C-41.27378994 55.19760413 -47.63886267 61.59682683 -54 68 C-52.41219641 71.86466333 -49.94066771 74.30059155 -46.99951172 77.22753906 C-46.23829514 77.98919373 -46.23829514 77.98919373 -45.46170044 78.76623535 C-43.78906131 80.43748509 -42.10945783 82.10154556 -40.4296875 83.765625 C-39.26625722 84.92532377 -38.10326874 86.08546592 -36.94070435 87.24603271 C-33.884018 90.29509352 -30.82137256 93.33809963 -27.75744629 96.37988281 C-24.63024835 99.48659913 -21.50872493 102.59900545 -18.38671875 105.7109375 C-12.2633512 111.81287417 -6.1336764 117.90842598 0 124 C3.86466333 122.41219641 6.30059155 119.94066771 9.22753906 116.99951172 C9.73530884 116.492034 10.24307861 115.98455627 10.76623535 115.46170044 C12.43748509 113.78906131 14.10154556 112.10945783 15.765625 110.4296875 C16.92532377 109.26625722 18.08546592 108.10326874 19.24603271 106.94070435 C22.29509352 103.884018 25.33809963 100.82137256 28.37988281 97.75744629 C31.48659913 94.63024835 34.59900545 91.50872493 37.7109375 88.38671875 C43.81287417 82.2633512 49.90842598 76.1336764 56 70 C54.41270484 66.14768974 51.95530575 63.70161109 49.03125 60.77246094 C48.52698486 60.26469116 48.02271973 59.75692139 47.50317383 59.23376465 C45.84043464 57.56224561 44.17051377 55.8981215 42.5 54.234375 C41.34150393 53.07453163 40.18330488 51.9143915 39.02539062 50.75396729 C36.60089564 48.32652647 34.17282638 45.90273366 31.7421875 43.48144531 C28.62136558 40.37204303 25.50964136 37.25371488 22.4005127 34.13262558 C20.01243075 31.73733217 17.61962507 29.34680356 15.2253418 26.95771027 C14.07557186 25.80927748 12.92729398 24.65934895 11.78051758 23.50792694 C10.18137281 21.90372591 8.5759975 20.30603808 6.96875 18.70996094 C6.05544922 17.79825134 5.14214844 16.88654175 4.20117188 15.94720459 C0.49718763 12.67057944 -0.51378089 14.28395835 -3.67575073 17.4269104 Z " fill="#FAFAFA" transform="translate(470,194)"/>
<path d="M0 0 C5.39190397 4.4978935 10.39391684 9.26126542 15.33984375 14.2421875 C16.10680069 15.01055939 16.87375763 15.77893127 17.66395569 16.57058716 C20.0908474 19.00303509 22.51422127 21.43895322 24.9375 23.875 C26.59156486 25.53408552 28.24585945 27.19294202 29.90039062 28.8515625 C33.93625433 32.89839709 37.96924277 36.94807953 42 41 C40.56741228 44.27196452 38.81174684 46.43203956 36.28466797 48.94238281 C35.52403046 49.70286926 34.76339294 50.46335571 33.97970581 51.24688721 C32.74838425 52.46272491 32.74838425 52.46272491 31.4921875 53.703125 C30.65156769 54.54091492 29.81094788 55.37870483 28.94485474 56.24188232 C26.25955999 58.91598431 23.56739345 61.58304724 20.875 64.25 C19.05292845 66.06204062 17.23130823 67.87453518 15.41015625 69.6875 C10.94532748 74.13028036 6.47483717 78.56730165 2 83 C-1.31613882 81.55419034 -3.49185728 79.75170208 -6.03417969 77.19287109 C-6.81468689 76.41221283 -7.59519409 75.63155457 -8.39935303 74.82723999 C-9.23178528 73.98448517 -10.06421753 73.14173035 -10.921875 72.2734375 C-11.78186096 71.41062164 -12.64184692 70.54780579 -13.52789307 69.65884399 C-16.2733231 66.90221971 -19.0117169 64.13872201 -21.75 61.375 C-23.61021783 59.50475143 -25.47088946 57.63495411 -27.33203125 55.765625 C-31.89329945 51.1823064 -36.44881011 46.59332522 -41 42 C-36.5021065 36.60809603 -31.73873458 31.60608316 -26.7578125 26.66015625 C-25.98944061 25.89319931 -25.22106873 25.12624237 -24.42941284 24.33604431 C-21.99696491 21.9091526 -19.56104678 19.48577873 -17.125 17.0625 C-15.46591448 15.40843514 -13.80705798 13.75414055 -12.1484375 12.09960938 C-8.10160291 8.06374567 -4.05192047 4.03075723 0 0 Z " fill="#FAFAFA" transform="translate(470,82)"/>
<path d="M0 0 C3.85308766 1.57523746 6.44743914 4.17747444 9.31933594 7.09228516 C9.83685928 7.60951645 10.35438263 8.12674774 10.8875885 8.65965271 C12.59130289 10.36475671 14.28782978 12.07682768 15.984375 13.7890625 C17.16649407 14.974913 18.34905645 16.16032174 19.53204346 17.3453064 C22.64028728 20.46117638 25.74247737 23.58300634 28.84344482 26.70611572 C32.01048502 29.89363619 35.18321387 33.0754832 38.35546875 36.2578125 C44.57589403 42.49966976 50.78993537 48.74783485 57 55 C51.63404477 61.5090428 45.72246515 67.44134281 39.765625 73.40234375 C38.68032749 74.49085932 37.59510329 75.579448 36.50994873 76.66810608 C34.24912104 78.93488666 31.98627168 81.19962657 29.72216797 83.46313477 C26.81617721 86.36902313 23.91717205 89.28177705 21.01980972 92.19626522 C18.78765545 94.43950143 16.55100822 96.67821505 14.31304169 98.91565132 C13.24128425 99.98859091 12.17115282 101.06315721 11.10266876 102.13935661 C9.61641677 103.63534854 8.12403331 105.12493984 6.62988281 106.61303711 C5.78194153 107.46240341 4.93400024 108.31176971 4.06036377 109.18687439 C2 111 2 111 0 111 C-1.34107971 109.63891602 -1.34107971 109.63891602 -2.93969727 107.69140625 C-7.65606159 102.14976744 -12.81005759 97.06491486 -17.96484375 91.9375 C-19.00881066 90.8954026 -20.05255372 89.85308091 -21.09608459 88.81054688 C-23.81785922 86.09255554 -26.54262523 83.3775831 -29.26806641 80.66326904 C-32.05881073 77.88282982 -34.84665871 75.09948971 -37.63476562 72.31640625 C-43.08704358 66.87479158 -48.54249109 61.43636897 -54 56 C-52.41219641 52.13533667 -49.94066771 49.69940845 -46.99951172 46.77246094 C-46.492034 46.26469116 -45.98455627 45.75692139 -45.46170044 45.23376465 C-43.78906131 43.56251491 -42.10945783 41.89845444 -40.4296875 40.234375 C-39.26625722 39.07467623 -38.10326874 37.91453408 -36.94070435 36.75396729 C-33.884018 33.70490648 -30.82137256 30.66190037 -27.75744629 27.62011719 C-24.63024835 24.51340087 -21.50872493 21.40099455 -18.38671875 18.2890625 C-12.2633512 12.18712583 -6.1336764 6.09157402 0 0 Z M-1.75906372 15.51855469 C-2.81829544 16.58444824 -2.81829544 16.58444824 -3.89892578 17.671875 C-4.6996048 18.47270508 -5.50028381 19.27353516 -6.32522583 20.09863281 C-7.18985443 20.97358398 -8.05448303 21.84853516 -8.9453125 22.75 C-9.8303244 23.6378418 -10.7153363 24.52568359 -11.62716675 25.44042969 C-13.98166258 27.80424682 -16.33173408 30.17229654 -18.67980957 32.54248047 C-21.07589152 34.9590037 -23.47762961 37.36989058 -25.87890625 39.78125 C-30.59118948 44.51563465 -35.29772387 49.25567712 -40 54 C-38.57155796 57.24388914 -36.82810831 59.43822147 -34.34814453 61.95825195 C-33.60041779 62.72196609 -32.85269104 63.48568024 -32.08230591 64.27253723 C-30.86980667 65.49308052 -30.86980667 65.49308052 -29.6328125 66.73828125 C-28.38611282 67.99852364 -28.38611282 67.99852364 -27.11422729 69.28422546 C-25.35672777 71.05622329 -23.5964106 72.82543033 -21.83349609 74.59204102 C-19.13005175 77.30742594 -16.44581526 80.04089663 -13.76171875 82.77539062 C-12.05323477 84.49333337 -10.34363673 86.21016905 -8.6328125 87.92578125 C-7.82852814 88.74959793 -7.02424377 89.57341461 -6.19558716 90.42219543 C-5.44155609 91.17014877 -4.68752502 91.91810211 -3.91064453 92.6887207 C-3.25049347 93.35394241 -2.59034241 94.01916412 -1.91018677 94.70454407 C-0.10954105 96.19846508 -0.10954105 96.19846508 1.99227905 95.93780518 C4.52261078 94.75588884 6.0670881 93.29264806 8.03417969 91.30639648 C8.81468689 90.52566269 9.59519409 89.74492889 10.39935303 88.9405365 C11.23178528 88.09262039 12.06421753 87.24470428 12.921875 86.37109375 C13.78186096 85.50686295 14.64184692 84.64263214 15.52789307 83.75221252 C18.27570575 80.98759388 21.01291036 78.21273138 23.75 75.4375 C25.60998825 73.56246749 27.47065707 71.68810982 29.33203125 69.81445312 C33.89594973 65.21743983 38.45119938 60.61197045 43 56 C38.51102138 50.62828285 33.77309006 45.61267667 28.828125 40.66015625 C28.06449646 39.89319931 27.30086792 39.12624237 26.51409912 38.33604431 C24.91191366 36.72882627 23.30839777 35.12293349 21.70361328 33.51831055 C19.23832532 31.05081486 16.7811677 28.57540522 14.32421875 26.09960938 C12.76350983 24.5359701 11.2023288 22.97280188 9.640625 21.41015625 C8.90418762 20.66653336 8.16775024 19.92291046 7.40899658 19.15675354 C6.72778748 18.47862106 6.04657837 17.80048859 5.34472656 17.10180664 C4.74549377 16.50114883 4.14626099 15.90049103 3.52886963 15.28163147 C1.24137176 13.36405184 0.47073637 13.59362534 -1.75906372 15.51855469 Z " fill="#F9F9F9" transform="translate(400,138)"/>
<path d="M0 0 C3.86466333 1.58780359 6.30059155 4.05933229 9.22753906 7.00048828 C9.73530884 7.507966 10.24307861 8.01544373 10.76623535 8.53829956 C12.43748509 10.21093869 14.10154556 11.89054217 15.765625 13.5703125 C16.92532377 14.73374278 18.08546592 15.89673126 19.24603271 17.05929565 C22.29509352 20.115982 25.33809963 23.17862744 28.37988281 26.24255371 C31.48659913 29.36975165 34.59900545 32.49127507 37.7109375 35.61328125 C43.81287417 41.7366488 49.90842598 47.8663236 56 54 C54.41219641 57.86466333 51.94066771 60.30059155 48.99951172 63.22753906 C48.492034 63.73530884 47.98455627 64.24307861 47.46170044 64.76623535 C45.78906131 66.43748509 44.10945783 68.10154556 42.4296875 69.765625 C41.26625722 70.92532377 40.10326874 72.08546592 38.94070435 73.24603271 C35.884018 76.29509352 32.82137256 79.33809963 29.75744629 82.37988281 C26.63024835 85.48659913 23.50872493 88.59900545 20.38671875 91.7109375 C14.2633512 97.81287417 8.1336764 103.90842598 2 110 C-1.86466333 108.41219641 -4.30059155 105.94066771 -7.22753906 102.99951172 C-7.73530884 102.492034 -8.24307861 101.98455627 -8.76623535 101.46170044 C-10.43748509 99.78906131 -12.10154556 98.10945783 -13.765625 96.4296875 C-14.92532377 95.26625722 -16.08546592 94.10326874 -17.24603271 92.94070435 C-20.29509352 89.884018 -23.33809963 86.82137256 -26.37988281 83.75744629 C-29.48659913 80.63024835 -32.59900545 77.50872493 -35.7109375 74.38671875 C-41.81287417 68.2633512 -47.90842598 62.1336764 -54 56 C-52.41219641 52.13533667 -49.94066771 49.69940845 -46.99951172 46.77246094 C-46.492034 46.26469116 -45.98455627 45.75692139 -45.46170044 45.23376465 C-43.78906131 43.56251491 -42.10945783 41.89845444 -40.4296875 40.234375 C-39.26625722 39.07467623 -38.10326874 37.91453408 -36.94070435 36.75396729 C-33.884018 33.70490648 -30.82137256 30.66190037 -27.75744629 27.62011719 C-24.63024835 24.51340087 -21.50872493 21.40099455 -18.38671875 18.2890625 C-12.2633512 12.18712583 -6.1336764 6.09157402 0 0 Z M-1.75906372 15.51855469 C-2.81829544 16.58444824 -2.81829544 16.58444824 -3.89892578 17.671875 C-4.6996048 18.47270508 -5.50028381 19.27353516 -6.32522583 20.09863281 C-7.18985443 20.97358398 -8.05448303 21.84853516 -8.9453125 22.75 C-9.8303244 23.6378418 -10.7153363 24.52568359 -11.62716675 25.44042969 C-13.98166258 27.80424682 -16.33173408 30.17229654 -18.67980957 32.54248047 C-21.07589152 34.9590037 -23.47762961 37.36989058 -25.87890625 39.78125 C-30.59118948 44.51563465 -35.29772387 49.25567712 -40 54 C-38.56741228 57.27196452 -36.81174684 59.43203956 -34.28466797 61.94238281 C-33.52403046 62.70286926 -32.76339294 63.46335571 -31.97970581 64.24688721 C-31.15882477 65.05744568 -30.33794373 65.86800415 -29.4921875 66.703125 C-28.65156769 67.54091492 -27.81094788 68.37870483 -26.94485474 69.24188232 C-24.25955999 71.91598431 -21.56739345 74.58304724 -18.875 77.25 C-17.05292845 79.06204062 -15.23130823 80.87453518 -13.41015625 82.6875 C-8.94532748 87.13028036 -4.47483717 91.56730165 0 96 C3.27196452 94.56741228 5.43203956 92.81174684 7.94238281 90.28466797 C8.70286926 89.52403046 9.46335571 88.76339294 10.24688721 87.97970581 C11.46272491 86.74838425 11.46272491 86.74838425 12.703125 85.4921875 C13.54091492 84.65156769 14.37870483 83.81094788 15.24188232 82.94485474 C17.91598431 80.25955999 20.58304724 77.56739345 23.25 74.875 C25.06204062 73.05292845 26.87453518 71.23130823 28.6875 69.41015625 C33.13028036 64.94532748 37.56730165 60.47483717 42 56 C40.57000073 52.74236371 38.82243678 50.56964773 36.31640625 48.05761719 C35.56222412 47.29713074 34.80804199 46.53664429 34.03100586 45.75311279 C33.21639893 44.94255432 32.40179199 44.13199585 31.5625 43.296875 C30.72662354 42.45908508 29.89074707 41.62129517 29.02954102 40.75811768 C27.26336443 38.99058097 25.49466312 37.22556398 23.72363281 35.46289062 C21.00353119 32.75351726 18.29428001 30.03362235 15.5859375 27.3125 C13.87043283 25.59831643 12.15430814 23.8847531 10.4375 22.171875 C9.62289307 21.3532196 8.80828613 20.53456421 7.96899414 19.69110107 C7.21481201 18.94322327 6.46062988 18.19534546 5.68359375 17.42480469 C5.01900146 16.76180359 4.35440918 16.09880249 3.66967773 15.41571045 C1.30489211 13.41062189 0.57813543 13.50091048 -1.75906372 15.51855469 Z " fill="#262626" transform="translate(470,208)"/>
<path d="M0 0 C6.36590304 5.24458586 12.13570612 11.02097322 17.9375 16.875 C18.91708237 17.85960919 19.89689837 18.843986 20.87695312 19.828125 C23.25360252 22.21648203 25.62787356 24.60715212 28 27 C26.39626852 31.00517396 23.57886014 33.6771098 20.5546875 36.640625 C20.02481232 37.16767029 19.49493713 37.69471558 18.94900513 38.23773193 C17.26232175 39.91325675 15.56880436 41.58167722 13.875 43.25 C12.72740612 44.38755851 11.58026539 45.52557436 10.43359375 46.6640625 C7.62761863 49.44803465 4.81549536 52.2256576 2 55 C-6.31303089 51.2024772 -12.66936578 43.46444986 -19 37.0625 C-19.77472656 36.28326172 -20.54945313 35.50402344 -21.34765625 34.70117188 C-23.23410757 32.8030758 -25.11816245 30.90266851 -27 29 C-25.37843976 24.89891114 -22.4232297 22.16851833 -19.3359375 19.140625 C-18.78386627 18.59138367 -18.23179504 18.04214233 -17.66299438 17.47625732 C-15.90498185 15.72940707 -14.1401311 13.98965399 -12.375 12.25 C-11.1792292 11.06426409 -9.98391135 9.8780712 -8.7890625 8.69140625 C-5.86459747 5.78894915 -2.93398126 2.8928359 0 0 Z " fill="#262626" transform="translate(470,235)"/>
<path d="M0 0 C4.10108886 1.62156024 6.83148167 4.5767703 9.859375 7.6640625 C10.683237 8.49216934 10.683237 8.49216934 11.52374268 9.33700562 C13.27059293 11.09501815 15.01034601 12.8598689 16.75 14.625 C17.93573591 15.8207708 19.1219288 17.01608865 20.30859375 18.2109375 C23.21105085 21.13540253 26.1071641 24.06601874 29 27 C23.75541414 33.36590304 17.97902678 39.13570612 12.125 44.9375 C11.14039081 45.91708237 10.156014 46.89689837 9.171875 47.87695312 C6.78351797 50.25360252 4.39284788 52.62787356 2 55 C-5.93420081 51.28309592 -11.71084601 43.46139788 -17.328125 36.89453125 C-20.07253502 33.78462737 -23.02793506 30.89076226 -26 28 C-24.39626852 23.99482604 -21.57886014 21.3228902 -18.5546875 18.359375 C-17.75987473 17.56880707 -17.75987473 17.56880707 -16.94900513 16.76226807 C-15.26232175 15.08674325 -13.56880436 13.41832278 -11.875 11.75 C-10.72740612 10.61244149 -9.58026539 9.47442564 -8.43359375 8.3359375 C-5.62761863 5.55196535 -2.81549536 2.7743424 0 0 Z " fill="#FAFAFA" transform="translate(400,166)"/>
<path d="M0 0 C3.89043633 1.57795915 6.47695368 4.23554381 9.3515625 7.19140625 C10.10172134 7.94936745 10.10172134 7.94936745 10.86703491 8.72264099 C12.45786943 10.33123084 14.04183084 11.94636819 15.625 13.5625 C17.21617776 15.18130238 18.80879701 16.79861821 20.40438843 18.41307068 C21.39547098 19.41640427 22.38386808 20.42239908 23.36929321 21.43128967 C25.92858681 24.05171465 25.92858681 24.05171465 29 26 C27.37843976 30.10108886 24.4232297 32.83148167 21.3359375 35.859375 C20.78386627 36.40861633 20.23179504 36.95785767 19.66299438 37.52374268 C17.90498185 39.27059293 16.1401311 41.01034601 14.375 42.75 C13.1792292 43.93573591 11.98391135 45.1219288 10.7890625 46.30859375 C7.86459747 49.21105085 4.93398126 52.1071641 2 55 C-4.36590304 49.75541414 -10.13570612 43.97902678 -15.9375 38.125 C-16.91708237 37.14039081 -17.89689837 36.156014 -18.87695312 35.171875 C-21.25360252 32.78351797 -23.62787356 30.39284788 -26 28 C-24.39626852 23.99482604 -21.57886014 21.3228902 -18.5546875 18.359375 C-17.75987473 17.56880707 -17.75987473 17.56880707 -16.94900513 16.76226807 C-15.26232175 15.08674325 -13.56880436 13.41832278 -11.875 11.75 C-10.72740612 10.61244149 -9.58026539 9.47442564 -8.43359375 8.3359375 C-5.62761863 5.55196535 -2.81549536 2.7743424 0 0 Z " fill="#FAFAFA" transform="translate(539,166)"/>
<path d="M0 0 C6.36590304 5.24458586 12.13570612 11.02097322 17.9375 16.875 C18.91708237 17.85960919 19.89689837 18.843986 20.87695312 19.828125 C23.25360252 22.21648203 25.62787356 24.60715212 28 27 C26.39626852 31.00517396 23.57886014 33.6771098 20.5546875 36.640625 C20.02481232 37.16767029 19.49493713 37.69471558 18.94900513 38.23773193 C17.26232175 39.91325675 15.56880436 41.58167722 13.875 43.25 C12.72740612 44.38755851 11.58026539 45.52557436 10.43359375 46.6640625 C7.62761863 49.44803465 4.81549536 52.2256576 2 55 C-2.10108886 53.37843976 -4.83148167 50.4232297 -7.859375 47.3359375 C-8.40861633 46.78386627 -8.95785767 46.23179504 -9.52374268 45.66299438 C-11.27059293 43.90498185 -13.01034601 42.1401311 -14.75 40.375 C-15.93573591 39.1792292 -17.1219288 37.98391135 -18.30859375 36.7890625 C-21.21105085 33.86459747 -24.1071641 30.93398126 -27 28 C-21.75541414 21.63409696 -15.97902678 15.86429388 -10.125 10.0625 C-9.14039081 9.08291763 -8.156014 8.10310163 -7.171875 7.12304688 C-4.78351797 4.74639748 -2.39284788 2.37212644 0 0 Z " fill="#272727" transform="translate(470,96)"/>
<path d="M0 0 C3.83253129 -0.20505665 7.66363766 -0.32820828 11.5 -0.4375 C13.11648438 -0.52547852 13.11648438 -0.52547852 14.765625 -0.61523438 C20.083109 -0.72871727 24.26861078 -0.51830036 28.71875 2.58984375 C33.04304979 7.0536553 33.0462655 11.95445276 33.09375 17.9375 C33.07699219 18.60523438 33.06023437 19.27296875 33.04296875 19.9609375 C33.00000793 21.99962348 33.04259689 24.02424523 33.09375 26.0625 C33.00707556 36.98347954 33.00707556 36.98347954 28.71875 41.41015625 C23.36610152 45.14864667 17.79300164 44.78000188 11.5 44.4375 C10.39140625 44.40591797 9.2828125 44.37433594 8.140625 44.34179688 C5.42428324 44.25983829 2.71357284 44.14518763 0 44 C-0.01981934 43.44538086 -0.03963867 42.89076172 -0.06005859 42.31933594 C-0.15557651 39.79576307 -0.26514567 37.27298776 -0.375 34.75 C-0.4059375 33.87730469 -0.436875 33.00460937 -0.46875 32.10546875 C-0.50742187 31.26113281 -0.54609375 30.41679687 -0.5859375 29.546875 C-0.6173584 28.77182617 -0.6487793 27.99677734 -0.68115234 27.19824219 C-1.03026506 24.79134258 -1.80551104 23.10397705 -3 21 C-2.34 20.34 -1.68 19.68 -1 19 C-0.63105418 16.96939341 -0.63105418 16.96939341 -0.5859375 14.6484375 C-0.54726563 13.79765625 -0.50859375 12.946875 -0.46875 12.0703125 C-0.4378125 11.18085938 -0.406875 10.29140625 -0.375 9.375 C-0.33632813 8.4778125 -0.29765625 7.580625 -0.2578125 6.65625 C-0.16340643 4.4377073 -0.07783252 2.21917597 0 0 Z " fill="#F9F9F9" transform="translate(406,409)"/>
<path d="M0 0 C19.3976247 -1.35448931 19.3976247 -1.35448931 25.2421875 1.6875 C28.60654275 5.23670993 30.40401572 8.73853806 30.875 13.625 C30.49780902 18.05122067 28.47868902 20.335028 25.21484375 23.19921875 C23.72083177 25.02836702 23.72083177 25.02836702 24.125 27.8203125 C25.06770031 31.24601807 26.38508722 34.05870878 28.0625 37.1875 C31 42.68235294 31 42.68235294 31 46 C28.69 46 26.38 46 24 46 C23.76925781 45.42967041 23.53851562 44.85934082 23.30078125 44.27172852 C22.23324741 41.68702022 21.11770338 39.12588858 20 36.5625 C19.63777344 35.66466797 19.27554688 34.76683594 18.90234375 33.84179688 C18.52207031 32.98779297 18.14179687 32.13378906 17.75 31.25390625 C17.41484375 30.46314697 17.0796875 29.6723877 16.734375 28.85766602 C14.50331052 26.07035802 14.50331052 26.07035802 7 26 C7 32.6 7 39.2 7 46 C4.69 46 2.38 46 0 46 C-0.01981934 45.41508789 -0.03963867 44.83017578 -0.06005859 44.22753906 C-0.15553481 41.56791975 -0.26512142 38.90906162 -0.375 36.25 C-0.42140625 34.86941406 -0.42140625 34.86941406 -0.46875 33.4609375 C-0.50742187 32.57148438 -0.54609375 31.68203125 -0.5859375 30.765625 C-0.6173584 29.94868164 -0.6487793 29.13173828 -0.68115234 28.29003906 C-1.02343693 25.83167042 -1.7739277 24.14240001 -3 22 C-2.34 21.67 -1.68 21.34 -1 21 C-0.67 14.07 -0.34 7.14 0 0 Z " fill="#F1F1F1" transform="translate(715,408)"/>
<path d="M0 0 C2.64 0 5.28 0 8 0 C10.00678401 3.62128443 12.0042648 7.24761643 14 10.875 C14.57234375 11.90753906 15.1446875 12.94007813 15.734375 14.00390625 C16.27578125 14.99003906 16.8171875 15.97617187 17.375 16.9921875 C18.12910156 18.35899658 18.12910156 18.35899658 18.8984375 19.75341797 C20 22 20 22 20 24 C20.66 24 21.32 24 22 24 C22.28085449 23.27079346 22.56170898 22.54158691 22.85107422 21.7902832 C23.90925037 19.22039472 25.08100936 16.80886697 26.3828125 14.35546875 C26.82753906 13.51435547 27.27226562 12.67324219 27.73046875 11.80664062 C28.19066406 10.94232422 28.65085938 10.07800781 29.125 9.1875 C29.59292969 8.30384766 30.06085938 7.42019531 30.54296875 6.50976562 C31.69307603 4.33864475 32.84548146 2.1687774 34 0 C36.64 0 39.28 0 42 0 C42.029729 0.83192871 42.029729 0.83192871 42.06005859 1.68066406 C42.15557651 4.20423693 42.26514567 6.72701224 42.375 9.25 C42.4059375 10.12269531 42.436875 10.99539063 42.46875 11.89453125 C42.52675781 13.16103516 42.52675781 13.16103516 42.5859375 14.453125 C42.6173584 15.22817383 42.6487793 16.00322266 42.68115234 16.80175781 C43.03026506 19.20865742 43.80551104 20.89602295 45 23 C44.34 23.66 43.68 24.32 43 25 C42.63047951 27.12860662 42.63047951 27.12860662 42.5859375 29.5703125 C42.54726562 30.46621094 42.50859375 31.36210937 42.46875 32.28515625 C42.42234375 33.69087891 42.42234375 33.69087891 42.375 35.125 C42.33632812 36.06988281 42.29765625 37.01476562 42.2578125 37.98828125 C42.16338654 40.32532375 42.07781606 42.66235501 42 45 C39.69 45 37.38 45 35 45 C34.67 35.1 34.34 25.2 34 15 C31.03 20.61 28.06 26.22 25 32 C22.36 32 19.72 32 17 32 C12.545 23.585 12.545 23.585 8 15 C7.67 24.9 7.34 34.8 7 45 C4.69 45 2.38 45 0 45 C-0.01981934 44.41508789 -0.03963867 43.83017578 -0.06005859 43.22753906 C-0.15553481 40.56791975 -0.26512142 37.90906162 -0.375 35.25 C-0.42140625 33.86941406 -0.42140625 33.86941406 -0.46875 32.4609375 C-0.50742188 31.57148438 -0.54609375 30.68203125 -0.5859375 29.765625 C-0.6173584 28.94868164 -0.6487793 28.13173828 -0.68115234 27.29003906 C-1.02343693 24.83167042 -1.7739277 23.14240001 -3 21 C-2.34 20.34 -1.68 19.68 -1 19 C-0.63105418 16.96939341 -0.63105418 16.96939341 -0.5859375 14.6484375 C-0.54726562 13.79765625 -0.50859375 12.946875 -0.46875 12.0703125 C-0.4378125 11.18085938 -0.406875 10.29140625 -0.375 9.375 C-0.33632812 8.4778125 -0.29765625 7.580625 -0.2578125 6.65625 C-0.16340643 4.4377073 -0.07783252 2.21917597 0 0 Z " fill="#F3F3F3" transform="translate(126,409)"/>
<path d="M0 0 C3.51996201 -0.20488457 7.03837879 -0.32813842 10.5625 -0.4375 C11.55314453 -0.49615234 12.54378906 -0.55480469 13.56445312 -0.61523438 C18.85395628 -0.73824608 22.19120348 -0.52382514 26.1640625 3.1796875 C29.58678492 7.2493534 29.94828079 10.1992676 29.6484375 15.41796875 C28.60792231 19.56122504 26.13435697 21.19908526 23 24 C23.19038294 28.49779704 25.50127365 32.28137403 27.5625 36.1875 C31 42.74633072 31 42.74633072 31 45 C28.69 45 26.38 45 24 45 C22.48987869 42.23456804 20.99369852 39.46183193 19.5 36.6875 C19.07074219 35.90181641 18.64148438 35.11613281 18.19921875 34.30664062 C17.59013672 33.1706543 17.59013672 33.1706543 16.96875 32.01171875 C16.59169922 31.31522217 16.21464844 30.61872559 15.82617188 29.90112305 C15 28 15 28 15 25 C12.03 25 9.06 25 6 25 C6 31.6 6 38.2 6 45 C4.02 45 2.04 45 0 45 C-0.02187378 44.11477661 -0.02187378 44.11477661 -0.04418945 43.21166992 C-0.11868844 40.53628771 -0.21533995 37.86215108 -0.3125 35.1875 C-0.33505859 34.25873047 -0.35761719 33.32996094 -0.38085938 32.37304688 C-0.41630859 31.48037109 -0.45175781 30.58769531 -0.48828125 29.66796875 C-0.51446533 28.84578857 -0.54064941 28.0236084 -0.56762695 27.17651367 C-1.08463956 24.57393468 -1.98202695 23.66089283 -4 22 C-3.5155542 21.59676514 -3.0311084 21.19353027 -2.53198242 20.77807617 C-0.63082835 18.57152555 -0.5848884 17.42967446 -0.48828125 14.55078125 C-0.45283203 13.70322266 -0.41738281 12.85566406 -0.38085938 11.98242188 C-0.35830078 11.10134766 -0.33574219 10.22027344 -0.3125 9.3125 C-0.27833984 8.41982422 -0.24417969 7.52714844 -0.20898438 6.60742188 C-0.12654352 4.40507329 -0.05738449 2.20312062 0 0 Z " fill="#F9F9F9" transform="translate(309,409)"/>
<path d="M0 0 C2.64 0 5.28 0 8 0 C8.34256836 0.6297876 8.68513672 1.2595752 9.03808594 1.90844727 C10.60796833 4.79354341 12.17897536 7.6780257 13.75 10.5625 C14.28882813 11.55314453 14.82765625 12.54378906 15.3828125 13.56445312 C15.91132813 14.53447266 16.43984375 15.50449219 16.984375 16.50390625 C17.46616211 17.38892822 17.94794922 18.2739502 18.44433594 19.18579102 C20.26300462 22.4757775 22.13491568 25.73610244 24 29 C24.33 19.43 24.66 9.86 25 0 C27.31 0 29.62 0 32 0 C32.029729 0.83192871 32.029729 0.83192871 32.06005859 1.68066406 C32.15557651 4.20423693 32.26514567 6.72701224 32.375 9.25 C32.4059375 10.12269531 32.436875 10.99539063 32.46875 11.89453125 C32.52675781 13.16103516 32.52675781 13.16103516 32.5859375 14.453125 C32.6173584 15.22817383 32.6487793 16.00322266 32.68115234 16.80175781 C33.03026506 19.20865742 33.80551104 20.89602295 35 23 C34.34 23.66 33.68 24.32 33 25 C32.63047951 27.12860662 32.63047951 27.12860662 32.5859375 29.5703125 C32.54726563 30.46621094 32.50859375 31.36210937 32.46875 32.28515625 C32.42234375 33.69087891 32.42234375 33.69087891 32.375 35.125 C32.33632813 36.06988281 32.29765625 37.01476562 32.2578125 37.98828125 C32.16338654 40.32532375 32.07781606 42.66235501 32 45 C29.69 45 27.38 45 25 45 C24.52054932 44.12674072 24.04109863 43.25348145 23.54711914 42.35375977 C21.77280995 39.12315057 19.99624884 35.8937845 18.21899414 32.66479492 C17.44916999 31.26539536 16.67996223 29.86565654 15.91137695 28.46557617 C14.80841212 26.45662991 13.70325777 24.44890236 12.59765625 22.44140625 C12.25283707 21.81222794 11.90801788 21.18304962 11.55274963 20.5348053 C10.03209968 17.58592632 10.03209968 17.58592632 8 15 C7.67 24.9 7.34 34.8 7 45 C4.69 45 2.38 45 0 45 C-0.01981934 44.41508789 -0.03963867 43.83017578 -0.06005859 43.22753906 C-0.15553481 40.56791975 -0.26512142 37.90906162 -0.375 35.25 C-0.42140625 33.86941406 -0.42140625 33.86941406 -0.46875 32.4609375 C-0.50742187 31.57148438 -0.54609375 30.68203125 -0.5859375 29.765625 C-0.6173584 28.94868164 -0.6487793 28.13173828 -0.68115234 27.29003906 C-1.02343693 24.83167042 -1.7739277 23.14240001 -3 21 C-2.34 20.34 -1.68 19.68 -1 19 C-0.63105418 16.96939341 -0.63105418 16.96939341 -0.5859375 14.6484375 C-0.54726563 13.79765625 -0.50859375 12.946875 -0.46875 12.0703125 C-0.4378125 11.18085938 -0.406875 10.29140625 -0.375 9.375 C-0.33632813 8.4778125 -0.29765625 7.580625 -0.2578125 6.65625 C-0.16340643 4.4377073 -0.07783252 2.21917597 0 0 Z " fill="#F3F3F3" transform="translate(482,409)"/>
<path d="M0 0 C2.64 0 5.28 0 8 0 C8.30703857 0.81041748 8.61407715 1.62083496 8.93041992 2.45581055 C10.09503957 5.52931288 11.25995228 8.60270382 12.42504883 11.67602539 C12.92451103 12.9936908 13.42386407 14.3113976 13.9230957 15.62915039 C14.40811234 16.90934033 14.89331144 18.18946117 15.37869263 19.46951294 C15.86353007 20.74849437 16.34780269 22.02769005 16.83151245 23.30709839 C18.02719465 26.46381018 19.23719389 29.61356186 20.47900391 32.75244141 C21.16422119 34.49340088 21.16422119 34.49340088 21.86328125 36.26953125 C22.4807019 37.81991089 22.4807019 37.81991089 23.1105957 39.40161133 C24 42 24 42 24 45 C21.69 45 19.38 45 17 45 C15.02 39.555 15.02 39.555 13 34 C7.06 34 1.12 34 -5 34 C-6.32 37.63 -7.64 41.26 -9 45 C-11.31 45 -13.62 45 -16 45 C-15.47793813 40.04041225 -13.84258301 35.97635247 -11.83984375 31.46484375 C-10.93096923 28.79740273 -10.85754608 26.7985302 -11 24 C-11 23.01 -11 22.02 -11 21 C-10.3709375 20.92652344 -9.741875 20.85304688 -9.09375 20.77734375 C-6.82431841 20.21317478 -6.82431841 20.21317478 -6.09375 18.06640625 C-5.8978125 17.24011719 -5.701875 16.41382813 -5.5 15.5625 C-4.09167445 10.17040272 -2.15201701 5.13425378 0 0 Z " fill="#F7F7F7" transform="translate(367,409)"/>
<path d="M0 0 C2.05078125 0.03255208 4.1015625 0.06510417 6.15234375 0.09765625 C8.43555297 6.18319346 10.71369761 12.2706086 12.98828125 18.359375 C13.76314841 20.43175463 14.53918677 22.50369674 15.31640625 24.57519531 C16.43144836 27.54769277 17.54230989 30.52172301 18.65234375 33.49609375 C19.00232422 34.42634369 19.35230469 35.35659363 19.71289062 36.31503296 C20.03322266 37.17577423 20.35355469 38.0365155 20.68359375 38.92333984 C20.96783203 39.682789 21.25207031 40.44223816 21.54492188 41.22470093 C22.15234375 43.09765625 22.15234375 43.09765625 22.15234375 45.09765625 C19.84234375 45.09765625 17.53234375 45.09765625 15.15234375 45.09765625 C13.17234375 39.65265625 13.17234375 39.65265625 11.15234375 34.09765625 C4.88234375 33.76765625 -1.38765625 33.43765625 -7.84765625 33.09765625 C-8.34265625 35.57265625 -8.34265625 35.57265625 -8.84765625 38.09765625 C-9.74071499 40.48994314 -10.79661651 42.76708987 -11.84765625 45.09765625 C-13.82765625 45.09765625 -15.80765625 45.09765625 -17.84765625 45.09765625 C-17.39914863 40.94896077 -16.24645401 37.44918645 -14.72265625 33.59765625 C-13.0634465 29.29074378 -13.0634465 29.29074378 -13.41015625 24.72265625 C-13.55453125 23.85640625 -13.69890625 22.99015625 -13.84765625 22.09765625 C-13.09871094 21.38867188 -12.34976563 20.6796875 -11.578125 19.94921875 C-8.25457991 16.47827753 -7.09742293 13.33082975 -5.59765625 8.84765625 C-2.56061612 0.13533912 -2.56061612 0.13533912 0 0 Z " fill="#F7F7F7" transform="translate(678.84765625,408.90234375)"/>
<path d="M0 0 C3.12771362 2.40334189 4.7790208 4.27884448 5.51171875 8.203125 C5.54724834 10.44859529 5.41218815 12.52075775 5.05078125 14.734375 C2.74078125 14.734375 0.43078125 14.734375 -1.94921875 14.734375 C-2.23796875 13.620625 -2.52671875 12.506875 -2.82421875 11.359375 C-3.64163204 7.73146408 -3.64163204 7.73146408 -5.94921875 5.734375 C-8.74266953 5.37610358 -8.74266953 5.37610358 -11.88671875 5.421875 C-12.94761719 5.40511719 -14.00851562 5.38835937 -15.1015625 5.37109375 C-17.89617415 5.49882371 -17.89617415 5.49882371 -19.60229492 6.91723633 C-21.4451359 9.4034182 -21.33693331 11.09592327 -21.34765625 14.171875 C-21.35152344 15.23148437 -21.35539063 16.29109375 -21.359375 17.3828125 C-21.34777344 18.48882812 -21.33617187 19.59484375 -21.32421875 20.734375 C-21.33582031 21.84039062 -21.34742188 22.94640625 -21.359375 24.0859375 C-21.35550781 25.14554687 -21.35164062 26.20515625 -21.34765625 27.296875 C-21.34427246 28.26753906 -21.34088867 29.23820312 -21.33740234 30.23828125 C-21.14246718 32.76891605 -21.14246718 32.76891605 -19.60009766 34.54931641 C-17.09829775 36.34519585 -14.98557059 36.13170112 -11.94921875 36.109375 C-10.89734375 36.11710937 -9.84546875 36.12484375 -8.76171875 36.1328125 C-5.95373448 35.96268362 -5.95373448 35.96268362 -4.1171875 34.37890625 C-2.59897734 32.24122573 -2.29686032 30.30692259 -1.94921875 27.734375 C-4.91921875 27.734375 -7.88921875 27.734375 -10.94921875 27.734375 C-10.94921875 25.424375 -10.94921875 23.114375 -10.94921875 20.734375 C-5.66921875 20.734375 -0.38921875 20.734375 5.05078125 20.734375 C5.77046139 34.4082977 5.77046139 34.4082977 3.78515625 38.06640625 C1.71475037 40.13178687 0.08239608 41.734375 -2.94921875 41.734375 C-2.94921875 42.394375 -2.94921875 43.054375 -2.94921875 43.734375 C-19.73779345 44.93628432 -19.73779345 44.93628432 -24.94921875 41.046875 C-28.85578794 36.82847323 -28.78954608 32.15996651 -28.71875 26.625 C-28.67946407 23.70967207 -28.67946407 23.70967207 -30.4609375 21.84375 C-30.95207031 21.47765625 -31.44320312 21.1115625 -31.94921875 20.734375 C-31.459375 20.36957031 -30.96953125 20.00476563 -30.46484375 19.62890625 C-28.29859084 16.92109011 -28.6834224 14.84573422 -28.69921875 11.421875 C-28.18754736 3.90617714 -28.18754736 3.90617714 -25.51171875 0.921875 C-18.83861262 -3.63808085 -7.16895569 -3.076479 0 0 Z " fill="#F6F6F6" transform="translate(562.94921875,410.265625)"/>
<path d="M0 0 C1.03125 0.144375 2.0625 0.28875 3.125 0.4375 C1.7550094 3.40870324 0.16219635 5.80404562 -1.9140625 8.328125 C-2.49414062 9.03710938 -3.07421875 9.74609375 -3.671875 10.4765625 C-4.27515625 11.20617187 -4.8784375 11.93578125 -5.5 12.6875 C-6.11101563 13.43257813 -6.72203125 14.17765625 -7.3515625 14.9453125 C-8.8560076 16.77885497 -10.36389893 18.60944246 -11.875 20.4375 C-8.46563653 26.75144255 -4.33437603 32.2561651 0.0546875 37.91601562 C0.57804688 38.59986328 1.10140625 39.28371094 1.640625 39.98828125 C2.11790039 40.60356689 2.59517578 41.21885254 3.08691406 41.8527832 C4.125 43.4375 4.125 43.4375 4.125 45.4375 C1.05859375 45.9609375 1.05859375 45.9609375 -2.875 45.4375 C-5.67526614 43.0033464 -7.69231698 40.0906374 -9.8125 37.0625 C-10.40095703 36.2684375 -10.98941406 35.474375 -11.59570312 34.65625 C-15.875 28.79147612 -15.875 28.79147612 -15.875 26.4375 C-16.535 26.4375 -17.195 26.4375 -17.875 26.4375 C-18.184375 27.076875 -18.49375 27.71625 -18.8125 28.375 C-19.875 30.4375 -19.875 30.4375 -20.875 31.4375 C-21.11027773 33.78737262 -21.28886417 36.14306039 -21.4375 38.5 C-21.52128906 39.79035156 -21.60507812 41.08070313 -21.69140625 42.41015625 C-21.75199219 43.40917969 -21.81257812 44.40820312 -21.875 45.4375 C-23.855 45.4375 -25.835 45.4375 -27.875 45.4375 C-27.89481934 44.88288086 -27.91463867 44.32826172 -27.93505859 43.75683594 C-28.03057651 41.23326307 -28.14014567 38.71048776 -28.25 36.1875 C-28.2809375 35.31480469 -28.311875 34.44210937 -28.34375 33.54296875 C-28.38242187 32.69863281 -28.42109375 31.85429687 -28.4609375 30.984375 C-28.4923584 30.20932617 -28.5237793 29.43427734 -28.55615234 28.63574219 C-28.90526506 26.22884258 -29.68051104 24.54147705 -30.875 22.4375 C-30.215 21.7775 -29.555 21.1175 -28.875 20.4375 C-28.50605418 18.40689341 -28.50605418 18.40689341 -28.4609375 16.0859375 C-28.42226563 15.23515625 -28.38359375 14.384375 -28.34375 13.5078125 C-28.3128125 12.61835938 -28.281875 11.72890625 -28.25 10.8125 C-28.21132813 9.9153125 -28.17265625 9.018125 -28.1328125 8.09375 C-28.03840643 5.8752073 -27.95283252 3.65667597 -27.875 1.4375 C-25.895 1.4375 -23.915 1.4375 -21.875 1.4375 C-21.545 8.0375 -21.215 14.6375 -20.875 21.4375 C-18.338125 18.1890625 -18.338125 18.1890625 -15.75 14.875 C-14.73309684 13.58879427 -13.715147 12.30341396 -12.6953125 11.01953125 C-11.10892367 9.01805644 -9.5630807 7.01112104 -8.0546875 4.94921875 C-5.44270428 1.50225728 -4.40254606 0.49706165 0 0 Z " fill="#F9F9F9" transform="translate(644.875,407.5625)"/>
<path d="M0 0 C15 0 15 0 19 3 C19.51757812 5.6796875 19.51757812 5.6796875 19.53125 8.875 C19.53640625 10.02484375 19.5415625 11.1746875 19.546875 12.359375 C19.53140625 13.56078125 19.5159375 14.7621875 19.5 16 C19.51546875 17.20140625 19.5309375 18.4028125 19.546875 19.640625 C19.54171875 20.79046875 19.5365625 21.9403125 19.53125 23.125 C19.52673828 24.17945313 19.52222656 25.23390625 19.51757812 26.3203125 C19 29 19 29 15 32 C10.05 32 5.1 32 0 32 C0 21.44 0 10.88 0 0 Z " fill="#161616" transform="translate(412,415)"/>
<path d="M0 0 C10.89 0 21.78 0 33 0 C33 2.31 33 4.62 33 7 C28.71 7 24.42 7 20 7 C20.12375 9.0625 20.2475 11.125 20.375 13.25 C20.44460938 14.41015625 20.51421875 15.5703125 20.5859375 16.765625 C20.96248308 19.70694334 21.4774123 21.49949011 23 24 C22.34 24.66 21.68 25.32 21 26 C20.63047951 28.12860662 20.63047951 28.12860662 20.5859375 30.5703125 C20.54726563 31.46621094 20.50859375 32.36210937 20.46875 33.28515625 C20.42234375 34.69087891 20.42234375 34.69087891 20.375 36.125 C20.33632813 37.06988281 20.29765625 38.01476562 20.2578125 38.98828125 C20.16338654 41.32532375 20.07781606 43.66235501 20 46 C18.02 46 16.04 46 14 46 C14 39.4 14 32.8 14 26 C12.68 25.34 11.36 24.68 10 24 C10.48082031 23.47921875 10.96164062 22.9584375 11.45703125 22.421875 C13.45173865 19.29094187 13.50318411 16.93631779 13.6875 13.25 C13.790625 11.1875 13.89375 9.125 14 7 C9.38 7 4.76 7 0 7 C0 4.69 0 2.38 0 0 Z " fill="#F4F4F4" transform="translate(757,408)"/>
<path d="M0 0 C3.16796875 -0.42578125 3.16796875 -0.42578125 7 0 C9.27402526 1.93857471 10.73636924 4.29317288 12.3125 6.8125 C12.95541992 7.77639648 12.95541992 7.77639648 13.61132812 8.75976562 C14.76228466 10.4924849 15.88269072 12.24539548 17 14 C17.99 15.485 17.99 15.485 19 17 C19.66 17 20.32 17 21 17 C22.38249511 15.13319132 23.68203634 13.20450208 24.9375 11.25 C26.28599153 9.16298881 27.63977986 7.07938604 29 5 C29.50273437 4.21625 30.00546875 3.4325 30.5234375 2.625 C32 1 32 1 35.6875 0.75 C36.780625 0.8325 37.87375 0.915 39 1 C37.93930557 4.54033109 36.26898663 7.05750332 33.99609375 9.90625 C24.59675377 21.89044135 22.0801123 30.84447314 23 46 C21.02 46 19.04 46 17 46 C17.1134375 44.8346875 17.226875 43.669375 17.34375 42.46875 C18.11128568 26.41846821 10.9617447 16.53973916 1.45288086 4.11279297 C0 2 0 2 0 0 Z " fill="#F7F7F7" transform="translate(180,408)"/>
<path d="M0 0 C10.56 0 21.12 0 32 0 C32 1.98 32 3.96 32 6 C27.71 6 23.42 6 19 6 C19.103125 8.0625 19.20625 10.125 19.3125 12.25 C19.37050781 13.41015625 19.42851562 14.5703125 19.48828125 15.765625 C20.01711803 19.10819638 20.73772333 20.5497057 23 23 C22.01 23.66 21.02 24.32 20 25 C19.49297483 27.12106795 19.49297483 27.12106795 19.48828125 29.5703125 C19.45283203 30.46621094 19.41738281 31.36210937 19.38085938 32.28515625 C19.35830078 33.22230469 19.33574219 34.15945313 19.3125 35.125 C19.27833984 36.06988281 19.24417969 37.01476562 19.20898438 37.98828125 C19.12635888 40.32540253 19.05726012 42.66214191 19 45 C17.02 45 15.04 45 13 45 C13 38.4 13 31.8 13 25 C11.68 24.34 10.36 23.68 9 23 C9.48082031 22.47921875 9.96164062 21.9584375 10.45703125 21.421875 C12.45173865 18.29094187 12.50318411 15.93631779 12.6875 12.25 C12.790625 10.1875 12.89375 8.125 13 6 C8.71 6 4.42 6 0 6 C0 4.02 0 2.04 0 0 Z " fill="#FDFDFD" transform="translate(262,409)"/>
<path d="M0 0 C1.55078125 1.57421875 1.55078125 1.57421875 3.3125 3.6875 C6.08499308 6.95300964 8.92600859 10.01915985 12 13 C10.41043716 16.81316478 7.99239303 19.372784 5.125 22.3125 C4.26132812 23.21613281 3.39765625 24.11976563 2.5078125 25.05078125 C0 27 0 27 -1.9609375 27.140625 C-5.04538239 25.41522671 -7.33733497 22.97364788 -9.75 20.4375 C-10.25660156 19.91736328 -10.76320313 19.39722656 -11.28515625 18.86132812 C-12.53034405 17.58089916 -13.76611502 16.29132446 -15 15 C-13.387672 10.96918 -10.53765404 8.24055863 -7.5 5.25 C-7.00113281 4.74339844 -6.50226563 4.23679688 -5.98828125 3.71484375 C-2.25341139 0 -2.25341139 0 0 0 Z " fill="#F8F8F8" transform="translate(472,249)"/>
<path d="M0 0 C4.07376031 1.61010527 6.76507069 4.53822271 9.75 7.625 C10.25660156 8.140625 10.76320313 8.65625 11.28515625 9.1875 C12.52803902 10.45383339 13.76465276 11.7263144 15 13 C10.88380164 17.91935902 6.59589638 22.52647956 2 27 C-1.81316478 25.41043716 -4.372784 22.99239303 -7.3125 20.125 C-8.21613281 19.26132813 -9.11976563 18.39765625 -10.05078125 17.5078125 C-12 15 -12 15 -12.140625 13.0390625 C-10.41522671 9.95461761 -7.97364788 7.66266503 -5.4375 5.25 C-4.91736328 4.74339844 -4.39722656 4.23679688 -3.86132812 3.71484375 C-2.58089916 2.46965595 -1.29132446 1.23388498 0 0 Z " fill="#252525" transform="translate(400,180)"/>
<path d="M0 0 C3.65141356 1.5255906 5.90118112 3.72480909 8.625 6.5625 C11.51070681 9.69042054 11.51070681 9.69042054 15 12 C13.38989473 16.07376031 10.46177729 18.76507069 7.375 21.75 C6.859375 22.25660156 6.34375 22.76320312 5.8125 23.28515625 C4.54616661 24.52803902 3.2736856 25.76465276 2 27 C-2.91935902 22.88380164 -7.52647956 18.59589638 -12 14 C-10.41332422 10.09714233 -7.86649519 7.66479018 -4.875 4.75 C-3.96492187 3.85796875 -3.05484375 2.9659375 -2.1171875 2.046875 C-1.41851563 1.37140625 -0.71984375 0.6959375 0 0 Z " fill="#262626" transform="translate(539,180)"/>
<path d="M0 0 C4.91935902 4.11619836 9.52647956 8.40410362 14 13 C12.41332422 16.90285767 9.86649519 19.33520982 6.875 22.25 C5.96492188 23.14203125 5.05484375 24.0340625 4.1171875 24.953125 C3.41851562 25.62859375 2.71984375 26.3040625 2 27 C-2.07376031 25.38989473 -4.76507069 22.46177729 -7.75 19.375 C-8.25660156 18.859375 -8.76320313 18.34375 -9.28515625 17.8125 C-10.52803902 16.54616661 -11.76465276 15.2736856 -13 14 C-8.88380164 9.08064098 -4.59589638 4.47352044 0 0 Z " fill="#FBFBFB" transform="translate(470,110)"/>
<path d="M0 0 C1.98 0 3.96 0 6 0 C6.01458252 0.55461914 6.02916504 1.10923828 6.04418945 1.68066406 C6.11886897 4.20446242 6.21546025 6.72696654 6.3125 9.25 C6.33505859 10.12269531 6.35761719 10.99539063 6.38085938 11.89453125 C6.55443721 18.0532778 6.55443721 18.0532778 10 23 C9.01 23.66 8.02 24.32 7 25 C6.49297483 27.12106795 6.49297483 27.12106795 6.48828125 29.5703125 C6.45283203 30.46621094 6.41738281 31.36210937 6.38085938 32.28515625 C6.34702148 33.69087891 6.34702148 33.69087891 6.3125 35.125 C6.27833984 36.06988281 6.24417969 37.01476562 6.20898438 37.98828125 C6.12635888 40.32540253 6.05726012 42.66214191 6 45 C4.02 45 2.04 45 0 45 C0 38.4 0 31.8 0 25 C-1.32 24.34 -2.64 23.68 -4 23 C-3.51917969 22.54109375 -3.03835938 22.0821875 -2.54296875 21.609375 C-0.20598469 17.65720955 -0.42921637 13.76525629 -0.3125 9.25 C-0.27833984 8.36183594 -0.24417969 7.47367187 -0.20898438 6.55859375 C-0.12671286 4.37252197 -0.05749828 2.18684049 0 0 Z " fill="#FCFCFC" transform="translate(455,409)"/>
<path d="M0 0 C9.86328125 -0.390625 9.86328125 -0.390625 13 0 C15.24337542 2.20174577 15.90915912 3.39439414 16.375 6.5 C15.90915912 9.60560586 15.24337542 10.79825423 13 13 C8.61723375 13.54579904 4.43192924 13.17552195 0 13 C0 8.71 0 4.42 0 0 Z " fill="#171717" transform="translate(315,415)"/>
<path d="M0 0 C11.37257618 -0.49445983 11.37257618 -0.49445983 14.359375 1.859375 C16 4 16 4 16.5 6.5 C15.83003286 9.84983568 14.66824253 10.89721284 12 13 C7.93404512 13.52667809 4.11858117 13.17906875 0 13 C0 8.71 0 4.42 0 0 Z " fill="#121212" transform="translate(722,415)"/>
<path d="M0 0 C0.66 0 1.32 0 2 0 C3.00399524 2.62353518 4.00334445 5.24867795 5 7.875 C5.28617187 8.62136719 5.57234375 9.36773437 5.8671875 10.13671875 C8 15.7734375 8 15.7734375 8 18 C3.38 18 -1.24 18 -6 18 C-4.2177429 11.88940424 -2.30678315 5.9317281 0 0 Z " fill="#252525" transform="translate(370,418)"/>
<path d="M0 0 C3.14878942 1.57439471 3.54022492 4.71527725 4.625 7.875 C4.85445312 8.51308594 5.08390625 9.15117187 5.3203125 9.80859375 C6.32486598 12.67276705 7 14.94250743 7 18 C2.71 18 -1.58 18 -6 18 C-4.2177429 11.88940424 -2.30678315 5.9317281 0 0 Z " fill="#222222" transform="translate(680,418)"/>
<path d="M0 0 C2.0625 0.4375 2.0625 0.4375 4 1 C3.67 2.65 3.34 4.3 3 6 C1.35 5.67 -0.3 5.34 -2 5 C-1.125 1.125 -1.125 1.125 0 0 Z " fill="#CA1B1B" transform="translate(300,284)"/>
</svg>
